<?xml version="1.0" encoding="UTF-8"?>
<svg version="1.1" xmlns="http://www.w3.org/2000/svg" width="512" height="512">
<path d="M0 0 C2.88702584 2.06278432 5.09011048 4.3336981 7.46484375 6.9453125 C11.56993646 10.6270439 16.4967518 13.18668456 21.2578125 15.9296875 C23.40735622 17.16845037 25.52166923 18.47147741 27.5859375 19.84765625 C28.0703125 22.73828125 28.0703125 22.73828125 27.5859375 25.84765625 C25.5390625 27.89453125 25.5390625 27.89453125 22.8359375 29.59765625 C21.51335937 30.45617188 21.51335937 30.45617188 20.1640625 31.33203125 C18.00225751 32.60291054 15.8335307 33.74116719 13.5859375 34.84765625 C14.18954102 35.16927734 14.79314453 35.49089844 15.41503906 35.82226562 C38.02018905 47.90477431 38.02018905 47.90477431 47.5859375 54.84765625 C48.48505859 55.49637695 48.48505859 55.49637695 49.40234375 56.15820312 C68.08793071 69.69875272 85.37709581 84.56817343 99.5859375 102.84765625 C100.37355469 103.82992187 101.16117187 104.8121875 101.97265625 105.82421875 C119.32491965 127.62947502 132.74668432 152.42725659 141.5859375 178.84765625 C141.86518066 179.68103516 142.14442383 180.51441406 142.43212891 181.37304688 C145.4273198 190.47673481 147.91347873 199.64531834 149.8359375 209.03515625 C149.98708008 209.76935791 150.13822266 210.50355957 150.29394531 211.26000977 C153.24772241 226.66065683 153.9594331 241.89053797 153.8984375 257.53515625 C153.89570328 258.99190765 153.89570328 258.99190765 153.89291382 260.47808838 C153.84865178 274.48017655 153.4346552 288.096299 150.5859375 301.84765625 C150.42496582 302.69666504 150.26399414 303.54567383 150.09814453 304.42041016 C141.66158483 348.66169682 121.29292798 389.87490725 90.5859375 422.84765625 C89.41452296 424.19771789 88.2476433 425.55173139 87.0859375 426.91015625 C79.93219262 435.08117678 72.10807281 442.13221362 63.5859375 448.84765625 C62.10480469 450.03681641 62.10480469 450.03681641 60.59375 451.25 C21.60194709 482.02532574 -29.00002772 502.790288 -79.14453125 503.05078125 C-80.04926682 503.05779556 -80.95400238 503.06480988 -81.88615417 503.07203674 C-84.7913414 503.08945582 -87.69632497 503.09588933 -90.6015625 503.09765625 C-91.59271057 503.09833099 -92.58385864 503.09900574 -93.6050415 503.09970093 C-107.76530353 503.08435268 -121.5056523 502.72890889 -135.4140625 499.84765625 C-136.26307129 499.68668457 -137.11208008 499.52571289 -137.98681641 499.35986328 C-170.76568171 493.10912161 -203.25327225 480.45291015 -230.4140625 460.84765625 C-231.08147461 460.37118652 -231.74888672 459.8947168 -232.43652344 459.40380859 C-251.07816083 446.01588396 -268.29178256 431.01577856 -282.4140625 412.84765625 C-283.20167969 411.86539062 -283.98929687 410.883125 -284.80078125 409.87109375 C-302.15304465 388.06583748 -315.57480932 363.26805591 -324.4140625 336.84765625 C-324.83292725 335.59758789 -324.83292725 335.59758789 -325.26025391 334.32226562 C-328.2554448 325.21857769 -330.74160373 316.04999416 -332.6640625 306.66015625 C-332.89077637 305.55885376 -332.89077637 305.55885376 -333.12207031 304.43530273 C-336.07173808 289.05608126 -336.78907517 273.84564099 -336.7265625 258.22265625 C-336.72440735 257.25210297 -336.7222522 256.28154968 -336.72003174 255.28158569 C-336.6689959 240.95334727 -336.32164688 226.92579843 -333.4140625 212.84765625 C-333.21538574 211.86458496 -333.01670898 210.88151367 -332.81201172 209.86865234 C-324.69241412 170.82768083 -308.19199276 133.48229801 -282.4140625 102.84765625 C-281.44914901 101.67844297 -280.48430671 100.50917093 -279.51953125 99.33984375 C-269.52234491 87.34387872 -258.7629712 76.43703228 -246.4140625 66.84765625 C-245.40859375 66.0484375 -244.403125 65.24921875 -243.3671875 64.42578125 C-221.4484398 47.10922664 -196.95772835 33.67120883 -170.4140625 24.84765625 C-169.16834473 24.4309668 -169.16834473 24.4309668 -167.89746094 24.00585938 C-158.79058225 21.00901583 -149.61992357 18.52083635 -140.2265625 16.59765625 C-139.49236084 16.44651367 -138.75815918 16.29537109 -138.00170898 16.13964844 C-126.62603174 13.95784304 -115.2666233 12.6950652 -103.6875 12.75 C-102.87453964 12.75055389 -102.06157928 12.75110779 -101.22398376 12.75167847 C-97.89621399 12.75731112 -94.57064409 12.76708977 -91.24365234 12.84399414 C-81.53803273 13.40247045 -81.53803273 13.40247045 -72.89428711 9.93334961 C-71.16105925 7.65231763 -69.7931015 5.35343775 -68.4140625 2.84765625 C-49.63947134 -14.66246757 -20.83362652 -12.87747781 0 0 Z " fill="#61CBF7" transform="translate(347.4140625,9.15234375)"/>
<path d="M0 0 C7.09148664 5.20310209 12.1961662 10.5884986 15 19 C16.46606023 33.97304135 13.34040573 51.35974779 5 64 C2.4375 67 2.4375 67 0 69 C-0.70125 69.680625 -1.4025 70.36125 -2.125 71.0625 C-11.13665484 77.13557174 -19.70642622 77.29813897 -30.25 76.75 C-40.84444399 76.46131401 -47.81604082 77.07426384 -56.62109375 82.89453125 C-67.89854156 89.92175018 -82.04919012 90.98514121 -95 92 C-93.17239229 108.70394145 -89.08989721 125.34209329 -83 141 C-82.45279297 142.41732422 -82.45279297 142.41732422 -81.89453125 143.86328125 C-78.51140365 151.13028819 -71.95388135 154.52305932 -65 158 C-65 160.31 -65 162.62 -65 165 C-60.37259539 167.20192925 -55.92010575 169.07650478 -50.9375 170.3125 C-44.06126218 172.2908888 -39.18253753 176.6257788 -35.5625 182.75 C-32.53550789 189.04614358 -31.96955143 194.81613051 -33.6484375 201.6328125 C-36.29844301 209.03923815 -40.44164714 213.70189711 -47 217.9375 C-50.48965717 219.17342025 -53.32435737 219.22053856 -57 219 C-57.38671875 220.27230469 -57.38671875 220.27230469 -57.78125 221.5703125 C-59.50435834 226.4193161 -61.94473229 230.82328532 -64.34375 235.3671875 C-69.81878221 247.37610249 -70.09893258 262.63420255 -65.9375 275.125 C-59.96875854 290.68092675 -48.02904892 300.39792327 -34.6875 309.5625 C-27.11766698 314.80720748 -19.61219095 320.12745179 -12.17651367 325.56079102 C-7.20592821 329.17859615 -2.13782761 332.6241622 3 336 C6.17391668 332.99764638 8.71252601 329.80246358 11.25 326.25 C12.30960937 324.77273438 12.30960937 324.77273438 13.390625 323.265625 C13.92171875 322.51796875 14.4528125 321.7703125 15 321 C13.60847293 317.66828152 12.17800099 316.12613235 9.17578125 314.15234375 C8.0151416 313.37673096 8.0151416 313.37673096 6.83105469 312.58544922 C5.99993164 312.04162598 5.16880859 311.49780273 4.3125 310.9375 C2.57287316 309.77414503 0.83460672 308.60875341 -0.90234375 307.44140625 C-1.76714355 306.86148926 -2.63194336 306.28157227 -3.52294922 305.68408203 C-8.84909426 302.06297534 -13.99271821 298.1954849 -19.15869141 294.3515625 C-21.08287957 292.9391645 -23.02819643 291.56077681 -24.98046875 290.1875 C-45.0638842 275.98305693 -45.0638842 275.98305693 -47 265 C-49.47723767 250.48548067 -43.51781414 238.23700609 -36 226 C-34.33129883 224.20239258 -34.33129883 224.20239258 -33 223 C-25.67733591 227.76492504 -18.61662737 232.69606195 -11.69140625 238.01953125 C-9.20113344 239.85199615 -6.67810348 241.45923992 -4 243 C-3.83286499 241.95827637 -3.83286499 241.95827637 -3.66235352 240.89550781 C-2.91056837 237.60904564 -1.74524912 234.76522851 -0.40234375 231.671875 C-0.13630844 231.05781799 0.12972687 230.44376099 0.40382385 229.81109619 C1.2837727 227.78792261 2.17240394 225.76872814 3.0625 223.75 C3.36702087 223.05535645 3.67154175 222.36071289 3.98529053 221.64501953 C12.39717904 202.48463716 21.60491261 183.69479319 31 165 C33.92429864 166.39563703 35.74052295 167.62227354 37.875 170.0625 C46.81457149 179.21263955 59.77142189 186.86067431 72.75 187.4375 C87.39736665 187.40772893 103.96621852 174.51425658 115 166 C115.91652344 165.29617188 116.83304687 164.59234375 117.77734375 163.8671875 C121.91305399 160.61724571 125.80681619 157.24154208 129.625 153.625 C133.52192638 150.17459643 136.78033079 148.41520096 142 148 C143.1034375 147.88527344 144.206875 147.77054688 145.34375 147.65234375 C157.00358502 146.98985312 164.37093035 150.58062023 174 157 C182.23403122 158.34984118 187.19662917 155.05466842 193.9609375 150.84765625 C201.30439684 146.38305951 211.6890123 146.97385616 219.9921875 148.578125 C226.91655447 151.0116086 231.96679285 155.79783359 237 161 C237.58523438 161.57878906 238.17046875 162.15757812 238.7734375 162.75390625 C240.9473943 165.24614954 241.98867168 167.04474199 242.02856445 170.40869141 C236.84790373 218.46814284 213.76747076 264.81473528 181 300 C179.82858546 301.35006164 178.6617058 302.70407514 177.5 304.0625 C170.34625512 312.23352053 162.52213531 319.28455737 154 326 C152.51886719 327.18916016 152.51886719 327.18916016 151.0078125 328.40234375 C112.01600959 359.17766949 61.41403478 379.94263175 11.26953125 380.203125 C10.36479568 380.21013931 9.46006012 380.21715363 8.52790833 380.22438049 C5.6227211 380.24179957 2.71773753 380.24823308 -0.1875 380.25 C-1.17864807 380.25067474 -2.16979614 380.25134949 -3.190979 380.25204468 C-17.35124103 380.23669643 -31.0915898 379.88125264 -45 377 C-45.84900879 376.83902832 -46.69801758 376.67805664 -47.57275391 376.51220703 C-80.35161921 370.26146536 -112.83920975 357.6052539 -140 338 C-140.66741211 337.52353027 -141.33482422 337.04706055 -142.02246094 336.55615234 C-160.66409833 323.16822771 -177.87772006 308.16812231 -192 290 C-192.78761719 289.01773437 -193.57523438 288.03546875 -194.38671875 287.0234375 C-211.73898215 265.21818123 -225.16074682 240.42039966 -234 214 C-234.41886475 212.74993164 -234.41886475 212.74993164 -234.84619141 211.47460938 C-238.88116826 199.21055966 -241.98030953 186.75705143 -244 174 C-244.217771 172.69289063 -244.217771 172.69289063 -244.43994141 171.359375 C-245.35698209 164.77125759 -245.35698209 164.77125759 -243.734375 161.265625 C-235.49963114 152.90120013 -226.79548666 147.79375207 -214.9375 147.6875 C-205.11274851 147.65956232 -198.02598863 150.04463542 -190.1796875 156.046875 C-186.214284 157.78085072 -182.09274939 157.81408487 -178.09082031 156.25732422 C-176.22987613 155.26823189 -174.46064309 154.20112647 -172.6875 153.0625 C-163.20857286 147.23008893 -152.76377435 146.23637718 -141.8359375 148.71875 C-137.88606006 150.23511162 -134.73970753 152.12765872 -131.4375 154.75 C-128.03726289 157.37488613 -125.22718587 157.49626252 -121.015625 157.37109375 C-118.69322211 157.08066967 -118.69322211 157.08066967 -116 155 C-117.32565369 151.20956308 -118.95559215 148.60125926 -121.5625 145.5625 C-134.7833946 129.40628043 -152.93184998 103.07597007 -152.30859375 81.4453125 C-150.35955822 66.00105628 -139.33509439 53.62432551 -127.65625 44.28125 C-109.50451045 30.24255432 -88.90687253 20.73962578 -66.9375 14.4375 C-59.84199622 12.39932535 -54.04733449 10.44029284 -48.25390625 5.703125 C-35.01977628 -4.2970148 -14.90795103 -8.47351624 0 0 Z " fill="#F8CEA8" transform="translate(257,132)"/>
<path d="M0 0 C-0.15984375 0.69738281 -0.3196875 1.39476562 -0.484375 2.11328125 C-2.65454384 14.2629386 -0.3678631 24.00730604 5.6875 34.5 C8.79263531 40.07213899 10.54234214 44.64701929 9 51 C6.59338389 54.56535721 3.91620053 55.49326945 0 57 C-0.01401855 58.11858398 -0.01401855 58.11858398 -0.02832031 59.25976562 C-0.0823603 62.6738215 -0.16594304 66.08655655 -0.25 69.5 C-0.26417969 70.67304687 -0.27835938 71.84609375 -0.29296875 73.0546875 C-0.47895279 79.67571927 -0.75780677 85.63123536 -5 91 C-7.98406731 93.73178528 -10.14099949 94.416302 -14.140625 94.73828125 C-15.12933594 94.83689453 -16.11804688 94.93550781 -17.13671875 95.03710938 C-19.19573288 95.219243 -21.25566684 95.39128791 -23.31640625 95.55273438 C-31.49629339 96.39618577 -36.57975436 98.85358755 -41.83984375 105.23046875 C-42.20207031 105.87628906 -42.56429687 106.52210938 -42.9375 107.1875 C-43.31777344 107.84105469 -43.69804687 108.49460937 -44.08984375 109.16796875 C-48.27478194 117.59172845 -46.78114006 131.23519496 -44 140 C-42.83879968 142.21751803 -41.59323512 144.22353751 -40.12109375 146.24609375 C-37.9784288 149.59820721 -37.88740097 152.95242416 -37.89453125 156.8515625 C-37.77138702 167.6089577 -37.65073228 175.20180236 -31 184 C-25.78097806 193.95830092 -22.69228293 203.78024217 -22 215 C-17.6436771 216.26678944 -14.9810898 215.65112957 -10.73046875 214.19140625 C-9.51907227 213.77793945 -8.30767578 213.36447266 -7.05957031 212.93847656 C-5.76842789 212.48109254 -4.47774507 212.02240929 -3.1875 211.5625 C-2.53616089 211.33413452 -1.88482178 211.10576904 -1.21374512 210.8704834 C12.40214114 206.08733997 25.29735299 200.5941314 37 192 C37.886875 191.401875 38.77375 190.80375 39.6875 190.1875 C43.1378577 186.92364812 45.56358536 183.05830944 48 179 C48.3609375 178.40703125 48.721875 177.8140625 49.09375 177.203125 C50.41377517 173.9940983 50.78944113 170.65795091 51.3125 167.25 C52.58810892 159.76749558 54.63017484 154.59448017 59.875 149 C63.05904084 147.50162784 65.5336757 147.62860811 69 148 C70.34275169 148.98731742 71.67732273 149.98594743 73 151 C76.1001699 150.84101693 77.77935793 150.14515926 80.375 148.4375 C83.91034398 146.5014783 86.02683916 146.36145629 90 147 C98.88354878 156.09078553 101.68265292 168.34253799 101.6015625 180.6953125 C100.88091855 184.65417474 99.50672644 186.87790389 97 190 C93.17036858 192.35669626 89.53388321 193.8192408 85.2734375 195.26171875 C84.2529834 195.61459961 84.2529834 195.61459961 83.21191406 195.97460938 C81.87009428 196.43297552 80.52061965 196.86980686 79.16308594 197.27929688 C65.56934061 201.90724193 54.39692257 217.56263502 44.60595703 227.56542969 C35.55348931 236.80230336 26.39514319 245.29805196 16 253 C15.01725098 253.74910645 14.03450195 254.49821289 13.02197266 255.27001953 C0.79036162 264.569833 -14.96588859 275.67520567 -31 274 C-43.34209491 271.20873603 -52.72512999 264.57533055 -61.80859375 256.015625 C-63.79186884 254.19143615 -65.81500115 252.572801 -68 251 C-68.27674561 251.88163818 -68.55349121 252.76327637 -68.83862305 253.67163086 C-69.89633147 256.70289823 -71.11028496 259.40681398 -72.58203125 262.25390625 C-73.09556152 263.25881104 -73.6090918 264.26371582 -74.13818359 265.29907227 C-74.69070801 266.37600342 -75.24323242 267.45293457 -75.8125 268.5625 C-85.79793429 288.27931129 -94.82721518 308.46402068 -103 329 C-107.36235741 327.54319799 -110.59340987 325.16864358 -114.125 322.3125 C-119.84213846 317.79112981 -125.75940388 313.7768738 -132 310 C-140.71326929 322.79761428 -147.32397835 335.20393661 -145 351 C-142.41910318 361.38326118 -134.09521169 368.40481933 -125.625 374.25 C-124.84406982 374.80155762 -124.06313965 375.35311523 -123.25854492 375.92138672 C-120.84532631 377.62343546 -118.42311269 379.3120778 -116 381 C-114.52392279 382.03790185 -113.04863562 383.07692837 -111.57421875 384.1171875 C-110.86563721 384.61702148 -110.15705566 385.11685547 -109.42700195 385.63183594 C-106.64629014 387.59544677 -103.86726708 389.56143978 -101.08886719 391.52832031 C-99.66333299 392.5326588 -98.23412193 393.53179362 -96.80175781 394.52636719 C-94.67183678 396.00587292 -92.55394477 397.50130504 -90.4375 399 C-89.4626062 399.66733154 -89.4626062 399.66733154 -88.46801758 400.34814453 C-86.68359375 401.625 -86.68359375 401.625 -84 404 C-84 408.12207122 -84.0981942 408.62943781 -86.40625 411.671875 C-87.15068359 412.66767578 -87.15068359 412.66767578 -87.91015625 413.68359375 C-88.43480469 414.36550781 -88.95945312 415.04742187 -89.5 415.75 C-90.02464844 416.44738281 -90.54929687 417.14476562 -91.08984375 417.86328125 C-92.38473427 419.58195413 -93.69126498 421.29184585 -95 423 C-100.37103482 420.06523849 -105.26400485 416.75318562 -110.1875 413.125 C-117.72286818 407.62133069 -125.33275835 402.23736568 -133.01049805 396.93408203 C-137.79103941 393.61367303 -142.44659323 390.17809308 -147.01342773 386.56860352 C-148.58314428 385.32915055 -150.1779625 384.12149145 -151.78125 382.92578125 C-160.91113422 375.00142752 -166.96736757 362.49597993 -168.26171875 350.59326172 C-169.00478396 339.87867418 -168.3368662 329.94425096 -164 320 C-163.72623535 319.35063477 -163.4524707 318.70126953 -163.17041016 318.03222656 C-158.01583032 306.09148173 -158.01583032 306.09148173 -153.69140625 303.75 C-151.375 303.3125 -151.375 303.3125 -149.1015625 303.16015625 C-144.42673742 302.80389635 -141.42932951 299.43931392 -138.3125 296.25 C-133.57983116 289.59868163 -131.8982634 283.15538359 -133 275 C-134.84119833 267.91312341 -138.71628994 262.75146869 -145 259 C-148.81743764 257.50868678 -152.5760228 256.28233863 -156.51171875 255.140625 C-159.71991051 254.09158581 -162.20303092 252.86108076 -165 251 C-164.67 248.69 -164.34 246.38 -164 244 C-164.804375 243.814375 -165.60875 243.62875 -166.4375 243.4375 C-174.39997266 240.22457243 -179.17550352 235.91804552 -182.6875 228 C-186.97193922 217.71759188 -189.42431255 206.80527335 -192 196 C-192.34509676 194.60515705 -192.69129542 193.21058582 -193.0390625 191.81640625 C-195.27505529 182.61122099 -195.27505529 182.61122099 -195 178 C-193.22076247 176.22076247 -190.76420753 176.65760853 -188.3762207 176.45654297 C-176.33359845 175.40978879 -164.19596077 173.56304621 -153.95141602 166.79077148 C-144.92828393 160.93978369 -136.23470821 161.4036643 -125.69238281 162.03198242 C-116.85806526 162.46078053 -109.87940326 161.17217985 -102 157 C-100.98020253 156.0201974 -99.97341071 155.02590038 -99 154 C-98.34 154 -97.68 154 -97 154 C-96.72929687 153.443125 -96.45859375 152.88625 -96.1796875 152.3125 C-95.37992272 150.74474917 -94.52850162 149.20249418 -93.6328125 147.6875 C-86.59969968 135.15179632 -81.98348201 116.6198415 -85.66015625 102.45703125 C-88.43787998 95.27823875 -93.40076314 90.11211843 -100.25 86.6875 C-101.21679688 86.26017578 -101.21679688 86.26017578 -102.203125 85.82421875 C-104 85 -104 85 -107 83 C-103.25866338 80.54140736 -99.81558026 78.28174591 -95.5625 76.8125 C-86.8124999 72.36074556 -80.59228082 62.96036838 -77 54 C-75.9877179 47.62262277 -77.86620444 42.81627089 -80.125 36.83203125 C-80.99946313 34.00173764 -81.27618438 31.93759752 -81 29 C-79.5625 26.625 -79.5625 26.625 -77 25 C-72.42751714 24.57211628 -69.06564307 25.12084447 -65.5 28.0625 C-63.57289361 31.83641668 -63.28591589 34.78274069 -63 39 C-61.34385343 39.38218767 -59.67542976 39.71395102 -58 40 C-56.46019678 38.46019678 -56.73128778 36.90934458 -56.5703125 34.765625 C-56.46323975 33.44788086 -56.46323975 33.44788086 -56.35400391 32.10351562 C-56.27843262 31.16185547 -56.20286133 30.22019531 -56.125 29.25 C-54.02690003 5.63938164 -54.02690003 5.63938164 -48 0 C-44.85028494 -0.69208743 -41.77305875 -0.55806479 -38.5625 -0.453125 C-37.6454126 -0.44367859 -36.7283252 -0.43423218 -35.78344727 -0.42449951 C-32.85472776 -0.38992452 -29.92803866 -0.32115759 -27 -0.25 C-24.07223477 -0.20000204 -21.14448835 -0.15702342 -18.21655273 -0.11834717 C-16.39561652 -0.09199214 -14.57477287 -0.05781469 -12.75415039 -0.01495361 C-11.9264917 0.00126038 -11.09883301 0.01747437 -10.24609375 0.03417969 C-9.15832642 0.06013214 -9.15832642 0.06013214 -8.04858398 0.08660889 C-5.96182665 0.07158473 -5.96182665 0.07158473 -3.85961914 -0.56463623 C-2 -1 -2 -1 0 0 Z " fill="#F6F2F0" transform="translate(356,46)"/>
<path d="M0 0 C11.65983502 -0.66249063 19.02718035 2.92827648 28.65625 9.34765625 C36.89028122 10.69749743 41.85287917 7.40232467 48.6171875 3.1953125 C55.96064684 -1.26928424 66.3452623 -0.67848759 74.6484375 0.92578125 C81.57280447 3.35926485 86.62304285 8.14548984 91.65625 13.34765625 C92.53410156 14.21583984 92.53410156 14.21583984 93.4296875 15.1015625 C95.6036443 17.59380579 96.64492168 19.39239824 96.68481445 22.75634766 C91.50415373 70.81579909 68.42372076 117.16239153 35.65625 152.34765625 C34.48483546 153.69771789 33.3179558 155.05173139 32.15625 156.41015625 C25.00250512 164.58117678 17.17838531 171.63221362 8.65625 178.34765625 C7.66882813 179.14042969 6.68140625 179.93320312 5.6640625 180.75 C-5.15642596 189.29036059 -16.66673483 196.85721397 -28.65625 203.66015625 C-30.16638672 204.52060547 -30.16638672 204.52060547 -31.70703125 205.3984375 C-34.34375 206.34765625 -34.34375 206.34765625 -36.48046875 205.78515625 C-38.69676572 204.07530869 -40.16775933 202.28083673 -41.84375 200.03515625 C-50.1136977 189.43034172 -59.61376529 179.98731477 -69.09375 170.47265625 C-70.42442505 169.13497192 -70.42442505 169.13497192 -71.78198242 167.77026367 C-76.8090316 162.7554469 -81.94122471 157.95386412 -87.34375 153.34765625 C-89.27184733 151.67228798 -91.18437295 149.98207371 -93.09375 148.28515625 C-94.44726562 147.09212891 -94.44726562 147.09212891 -95.828125 145.875 C-98.46090111 143.22995941 -100.30826641 140.46422656 -102.34375 137.34765625 C-103.95072833 135.67026652 -103.95072833 135.67026652 -105.71875 134.28515625 C-109.02527394 131.50816873 -112.2024247 128.63356808 -115.34594727 125.67578125 C-121.79696161 119.6066948 -128.40293412 113.85624028 -135.34375 108.34765625 C-136.68278001 107.27534911 -138.0212859 106.20238729 -139.359375 105.12890625 C-143.01654595 102.1964262 -146.67894928 99.27059447 -150.34375 96.34765625 C-147.10902479 87.73105526 -143.65903082 79.25121609 -139.90625 70.84765625 C-139.39763428 69.70562744 -138.88901855 68.56359863 -138.36499023 67.38696289 C-130.78798505 50.50679277 -122.66007982 33.87445031 -114.34375 17.34765625 C-111.41945136 18.74329328 -109.60322705 19.96992979 -107.46875 22.41015625 C-98.52917851 31.5602958 -85.57232811 39.20833056 -72.59375 39.78515625 C-57.94638335 39.75538518 -41.37753148 26.86191283 -30.34375 18.34765625 C-29.42722656 17.64382813 -28.51070313 16.94 -27.56640625 16.21484375 C-23.43069601 12.96490196 -19.53693381 9.58919833 -15.71875 5.97265625 C-10.63116928 1.46802748 -6.54206783 0.68019163 0 0 Z " fill="#ACD741" transform="translate(402.34375,279.65234375)"/>
<path d="M0 0 C3.60389245 0.4737784 6.4514085 1.55192546 9.66015625 3.22265625 C10.53003174 3.67439209 11.39990723 4.12612793 12.29614258 4.59155273 C13.20904053 5.07696533 14.12193848 5.56237793 15.0625 6.0625 C16.00697998 6.56273682 16.95145996 7.06297363 17.92456055 7.57836914 C24.938095 11.33856863 31.56288588 15.30680524 38 20 C38.90129639 20.650896 38.90129639 20.650896 39.82080078 21.31494141 C58.50539023 34.85348932 75.79239625 49.72210977 90 68 C90.78761719 68.98226562 91.57523438 69.96453125 92.38671875 70.9765625 C109.73898215 92.78181877 123.16074682 117.57960034 132 144 C132.27924316 144.83337891 132.55848633 145.66675781 132.84619141 146.52539062 C135.8413823 155.62907856 138.32754123 164.79766209 140.25 174.1875 C140.40114258 174.92170166 140.55228516 175.65590332 140.70800781 176.41235352 C143.53203376 191.13649334 144.30308433 205.62443777 144.20581055 220.58691406 C144.18734804 223.52417567 144.18530315 226.46112335 144.18554688 229.3984375 C144.18063656 231.29687769 144.17481038 233.19531579 144.16796875 235.09375 C144.16685593 235.95641479 144.1657431 236.81907959 144.16459656 237.70788574 C144.04675362 252.95324638 144.04675362 252.95324638 141 256 C140.36384766 255.12988281 140.36384766 255.12988281 139.71484375 254.2421875 C133.50015788 245.96504544 127.41717721 239.39169885 117 237 C104.54967312 235.3137541 95.98388822 237.85105843 85.42578125 244.66015625 C81.50735045 246.82444251 78.35223894 246.9396138 74 246 C70.78104285 244.42937796 67.80884957 242.66283187 64.796875 240.7265625 C59.54787873 237.48626033 55.82012976 236.74338598 49.625 236.8125 C48.35914063 236.81894531 47.09328125 236.82539063 45.7890625 236.83203125 C42.10376953 236.99539991 38.63562917 237.41285059 35 238 C40.64319523 231.27298612 46.69031245 225.01912826 52.86621094 218.78369141 C54.12033822 217.51298546 55.36907384 216.23693516 56.61230469 214.95556641 C69.91277363 201.25109484 69.91277363 201.25109484 79 198 C79.6604834 197.75362793 80.3209668 197.50725586 81.00146484 197.25341797 C83.90862706 196.22336915 86.85806317 195.32893876 89.80078125 194.40625 C93.95405069 192.58063706 96.94913011 190.10173978 99 186 C100.42609645 174.20229298 97.81154049 163.37331836 92 153 C89.78959851 150.32281756 89.30430341 150.04019102 85.6875 149.5625 C81.41997955 150.06881599 79.50930214 151.63503552 76 154 C72.41583928 153.83329485 71.02895718 153.01930479 68 151 C64.12047616 150.5689418 61.77981457 150.58288988 58.3125 152.4375 C53.48788419 157.7836959 51.95348504 163.4463684 51.0625 170.5 C50.2477821 176.62467753 48.51314426 180.95178684 45 186 C44.29875 187.010625 43.5975 188.02125 42.875 189.0625 C31.07477627 202.24244219 12.39530079 208.61491006 -3.84667969 214.24804688 C-5.8034846 214.93137557 -7.75007185 215.64378965 -9.6953125 216.359375 C-11.26925781 216.92398438 -11.26925781 216.92398438 -12.875 217.5 C-13.75929688 217.8196875 -14.64359375 218.139375 -15.5546875 218.46875 C-18.38101376 219.08277615 -20.24097463 218.80751962 -23 218 C-24.81691599 216.18308401 -24.47943327 213.2067459 -24.75 210.75 C-26.24807357 199.95730939 -30.90825066 184.09174934 -39 176 C-39.1210567 174.46018128 -39.1796011 172.91534582 -39.2109375 171.37109375 C-39.23929687 170.41783203 -39.26765625 169.46457031 -39.296875 168.48242188 C-39.34825241 166.47998743 -39.39272174 164.4773617 -39.4296875 162.47460938 C-39.68905067 154.407334 -40.98295311 148.5150947 -46 142 C-49.06196541 132.48662084 -50.16691135 119.71771299 -46 110.5 C-42.57347565 104.69233161 -38.22121219 100.14874111 -31.8125 97.86328125 C-26.73360378 96.7132443 -21.68772539 96.34684159 -16.49609375 96.05273438 C-12.37516671 95.70179539 -10.4307055 95.33250465 -7.0703125 92.73828125 C-3.64500205 88.20782346 -2.75250947 84.45990374 -2.5859375 78.82421875 C-2.54726563 77.66728516 -2.50859375 76.51035156 -2.46875 75.31835938 C-2.4378125 74.12017578 -2.406875 72.92199219 -2.375 71.6875 C-2.33632813 70.46998047 -2.29765625 69.25246094 -2.2578125 67.99804688 C-2.16371998 64.99884772 -2.07807791 61.99965177 -2 59 C-1.43410156 58.73445313 -0.86820312 58.46890625 -0.28515625 58.1953125 C0.44832031 57.84210938 1.18179688 57.48890625 1.9375 57.125 C3.03384766 56.60292969 3.03384766 56.60292969 4.15234375 56.0703125 C6.16332459 55.1315023 6.16332459 55.1315023 7 53 C8.56808066 45.32125451 5.85793796 39.9440078 2.02172852 33.53051758 C-1.82710333 27.02442918 -3.28692842 20.96379052 -3.25 13.375 C-3.25773437 11.77785156 -3.25773437 11.77785156 -3.265625 10.1484375 C-2.97459526 6.69887913 -2.56270735 2.56270735 0 0 Z " fill="#61CCF7" transform="translate(357,44)"/>
<path d="M0 0 C2.77116065 1.59151061 5.41071901 3.32763744 7.94921875 5.26953125 C11.91462225 7.00350697 16.03615686 7.03674112 20.03808594 5.47998047 C21.89903012 4.49088814 23.66826316 3.42378272 25.44140625 2.28515625 C34.92033339 -3.54725482 45.3651319 -4.54096657 56.29296875 -2.05859375 C60.24284619 -0.54223213 63.38919872 1.35031497 66.69140625 3.97265625 C70.04889849 6.55228977 72.75978341 6.72134774 76.91796875 6.59375 C79.51320191 6.15815433 81.72346072 5.27345614 84.12890625 4.22265625 C110.85545932 32.86296251 110.85545932 32.86296251 113.12890625 46.22265625 C112.36965833 50.70120815 109.66820164 53.22628154 106.69140625 56.47265625 C91.38817745 73.78639454 78.40031871 96.55952278 79.00390625 120.28515625 C81.04757857 140.60166338 92.77366833 157.31708664 108.12890625 170.22265625 C126.49782448 184.59398123 148.17863461 194.70060985 170.12890625 202.22265625 C170.81291504 202.45984375 171.49692383 202.69703125 172.20166016 202.94140625 C182.01716333 206.42246361 182.01716333 206.42246361 192.12890625 205.22265625 C193.97558594 205.84008789 193.97558594 205.84008789 196.05078125 206.8828125 C196.82252686 207.26187744 197.59427246 207.64094238 198.3894043 208.03149414 C199.21093994 208.44520264 200.03247559 208.85891113 200.87890625 209.28515625 C209.16395845 213.34545943 217.50789194 216.93661941 226.12890625 220.22265625 C225.89184306 223.42300926 224.91094585 224.4532245 222.6640625 226.83007812 C218.60145572 230.08521774 214.72440545 229.91131578 209.69140625 229.81640625 C208.78242584 229.81776077 207.87344543 229.8191153 206.93692017 229.82051086 C203.99999672 229.81555095 201.06540277 229.77156698 198.12890625 229.72265625 C196.10986512 229.70382229 194.09082213 229.68518653 192.07177734 229.66674805 C178.90235141 229.49976988 166.05296991 228.89999262 153.12890625 226.22265625 C152.27989746 226.06168457 151.43088867 225.90071289 150.55615234 225.73486328 C117.77728704 219.48412161 85.2896965 206.82791015 58.12890625 187.22265625 C57.46149414 186.74618652 56.79408203 186.2697168 56.10644531 185.77880859 C37.46480792 172.39088396 20.25118619 157.39077856 6.12890625 139.22265625 C4.94748047 137.74925781 4.94748047 137.74925781 3.7421875 136.24609375 C-13.6100759 114.44083748 -27.03184057 89.64305591 -35.87109375 63.22265625 C-36.15033691 62.38927734 -36.42958008 61.55589844 -36.71728516 60.69726562 C-40.75226201 48.43321591 -43.85140328 35.97970768 -45.87109375 23.22265625 C-46.01627441 22.35125 -46.16145508 21.47984375 -46.31103516 20.58203125 C-47.22807584 13.99391384 -47.22807584 13.99391384 -45.60546875 10.48828125 C-33.56453259 -1.74227595 -16.27167482 -7.68155207 0 0 Z " fill="#8ECB51" transform="translate(58.87109375,282.77734375)"/>
<path d="M0 0 C7.09148664 5.20310209 12.1961662 10.5884986 15 19 C16.46606023 33.97304135 13.34040573 51.35974779 5 64 C2.4375 67 2.4375 67 0 69 C-0.70125 69.680625 -1.4025 70.36125 -2.125 71.0625 C-11.13665484 77.13557174 -19.70642622 77.29813897 -30.25 76.75 C-40.84444399 76.46131401 -47.81604082 77.07426384 -56.62109375 82.89453125 C-67.89854156 89.92175018 -82.04919012 90.98514121 -95 92 C-93.17239229 108.70394145 -89.08989721 125.34209329 -83 141 C-82.45279297 142.41732422 -82.45279297 142.41732422 -81.89453125 143.86328125 C-78.51140365 151.13028819 -71.95388135 154.52305932 -65 158 C-65 160.31 -65 162.62 -65 165 C-60.37259539 167.20192925 -55.92010575 169.07650478 -50.9375 170.3125 C-44.06126218 172.2908888 -39.18253753 176.6257788 -35.5625 182.75 C-32.53550789 189.04614358 -31.96955143 194.81613051 -33.6484375 201.6328125 C-36.23175034 208.85284069 -40.19443223 213.74544094 -46.7890625 217.65234375 C-53.75363137 220.57542922 -61.85725287 220.32654773 -68.9140625 217.7109375 C-74.69297041 215.216709 -80.1590991 212.33979171 -83.0703125 206.5625 C-84.57835556 202.4058771 -85.81816306 198.16771604 -87.06567383 193.92724609 C-88.81336839 188.15817033 -91.19512778 183.70625425 -95 179 C-95.65871094 178.16597656 -96.31742188 177.33195313 -96.99609375 176.47265625 C-100.1760428 172.52181046 -103.44125888 168.64680017 -106.7421875 164.796875 C-112.49931505 158.07506121 -117.91271531 151.25295608 -123 144 C-123.68320313 143.06414062 -124.36640625 142.12828125 -125.0703125 141.1640625 C-154.64177946 99.93359423 -154.64177946 99.93359423 -152 79 C-146.98263557 58.75027768 -130.83821879 45.27558994 -113.87304688 34.67041016 C-99.03049275 25.72947465 -83.57034858 19.20879257 -66.9375 14.4375 C-59.84199622 12.39932535 -54.04733449 10.44029284 -48.25390625 5.703125 C-35.01977628 -4.2970148 -14.90795103 -8.47351624 0 0 Z " fill="#FABC8D" transform="translate(257,132)"/>
<path d="M0 0 C-0.04640625 1.30453125 -0.0928125 2.6090625 -0.140625 3.953125 C-0.178191 5.71872678 -0.21458589 7.48435375 -0.25 9.25 C-0.30027344 10.53003906 -0.30027344 10.53003906 -0.3515625 11.8359375 C-0.53054577 23.82781685 4.57623654 33.74021197 10.1875 44.0625 C11.26610484 46.07326392 12.34301066 48.08494042 13.41796875 50.09765625 C14.12602661 51.40488647 14.12602661 51.40488647 14.84838867 52.73852539 C18.250666 59.41974118 18.06128584 68.31026394 16.421875 75.5546875 C13.98747555 81.24232985 9.49283393 84.44677926 4 87 C-6.67920222 90.55216822 -16.98738198 92.04758647 -28.21728516 92.23901367 C-50.33436565 92.65493528 -71.53705004 93.56725735 -88.3671875 109.55859375 C-102.68445633 122.83499289 -116.25004682 128.77412117 -135.8515625 128.390625 C-144.94573231 127.92391045 -153.32742771 124.8903685 -161 120 C-146.70278727 92.48869672 -125.50560258 67.02949027 -101 48 C-99.99453125 47.20078125 -98.9890625 46.4015625 -97.953125 45.578125 C-72.78364554 25.69338197 -44.59717909 11.91021817 -14 2.5 C-12.75295288 2.11618164 -12.75295288 2.11618164 -11.48071289 1.72460938 C-7.56069146 0.57082547 -4.13384061 -0.33337424 0 0 Z " fill="#92DBFB" transform="translate(202,28)"/>
<path d="M0 0 C0.33 0 0.66 0 1 0 C1.00386719 1.4540625 1.00386719 1.4540625 1.0078125 2.9375 C1.43651371 23.19618376 10.27945598 39.07083701 24.59057617 53.19384766 C43.19094338 70.63909232 68.15120147 81.8273554 92 90 C92.68400879 90.2371875 93.36801758 90.474375 94.07275391 90.71875 C103.88825708 94.19980736 103.88825708 94.19980736 114 93 C115.84667969 93.61743164 115.84667969 93.61743164 117.921875 94.66015625 C118.69362061 95.03922119 119.46536621 95.41828613 120.26049805 95.80883789 C121.08203369 96.22254639 121.90356934 96.63625488 122.75 97.0625 C131.0350522 101.12280318 139.37898569 104.71396316 148 108 C147.76293681 111.20035301 146.7820396 112.23056825 144.53515625 114.60742188 C140.47254947 117.86256149 136.5954992 117.68865953 131.5625 117.59375 C130.65351959 117.59510452 129.74453918 117.59645905 128.80801392 117.59785461 C125.87109047 117.5928947 122.93649652 117.54891073 120 117.5 C117.98095887 117.48116604 115.96191588 117.46253028 113.94287109 117.4440918 C100.77344516 117.27711363 87.92406366 116.67733637 75 114 C74.15099121 113.83902832 73.30198242 113.67805664 72.42724609 113.51220703 C39.64838079 107.26146536 7.16079025 94.6052539 -20 75 C-20.66741211 74.52353027 -21.33482422 74.04706055 -22.02246094 73.55615234 C-40.65933989 60.1716451 -57.89077605 45.17288237 -72 27 C-72.84198798 25.93713548 -73.68445404 24.87464955 -74.52734375 23.8125 C-89 5.4357313 -89 5.4357313 -89 2 C-87.89974991 1.98969254 -86.79949982 1.97938507 -85.66590881 1.96876526 C-75.32071326 1.87120698 -64.97558023 1.76849005 -54.63048649 1.66066074 C-49.31137779 1.60538593 -43.99226365 1.55195878 -38.6730957 1.50268555 C-33.54431133 1.45510906 -28.4155961 1.40276896 -23.28689384 1.34705925 C-21.32560372 1.32660516 -19.36429462 1.30789725 -17.40297127 1.29092598 C-14.66579416 1.26694931 -11.928749 1.23688596 -9.19165039 1.20532227 C-8.37238068 1.1995668 -7.55311096 1.19381134 -6.70901489 1.18788147 C-3.05336705 1.48227006 -3.05336705 1.48227006 0 0 Z " fill="#E6387E" transform="translate(137,395)"/>
<path d="M0 0 C61.05 0 122.1 0 185 0 C180.49530632 9.00938735 180.49530632 9.00938735 178.08203125 12.1484375 C177.55432129 12.83881104 177.02661133 13.52918457 176.48291016 14.24047852 C175.9316748 14.94487061 175.38043945 15.6492627 174.8125 16.375 C173.95084229 17.48862915 173.95084229 17.48862915 173.07177734 18.62475586 C168.61977993 24.32751701 163.92731653 29.70264784 159 35 C157.82877852 36.35022913 156.66192767 37.70426491 155.5 39.0625 C148.34625512 47.23352053 140.52213531 54.28455737 132 61 C131.01257813 61.79277344 130.02515625 62.58554687 129.0078125 63.40234375 C118.18732404 71.94270434 106.67701517 79.50955772 94.6875 86.3125 C93.68074219 86.88613281 92.67398438 87.45976562 91.63671875 88.05078125 C89 89 89 89 86.86328125 88.4375 C84.64698428 86.72765244 83.17599067 84.93318048 81.5 82.6875 C73.2300523 72.08268547 63.72998471 62.63965852 54.25 53.125 C53.3628833 52.23321045 52.4757666 51.3414209 51.56176758 50.42260742 C46.5347184 45.40779065 41.40252529 40.60620787 36 36 C34.07190267 34.32463173 32.15937705 32.63441746 30.25 30.9375 C29.34765625 30.14214844 28.4453125 29.34679687 27.515625 28.52734375 C24.88274697 25.88220077 23.03659676 23.11603521 21 20 C19.35931771 18.28869242 19.35931771 18.28869242 17.5625 16.875 C13.61767374 13.55146516 9.79556103 10.11677173 6 6.625 C5.41162354 6.08858887 4.82324707 5.55217773 4.21704102 4.99951172 C2.79162465 3.68746402 1.39306544 2.34634678 0 1 C0 0.67 0 0.34 0 0 Z " fill="#212335" transform="translate(279,397)"/>
<path d="M0 0 C8.88354878 9.09078553 11.68265292 21.34253799 11.6015625 33.6953125 C10.88091855 37.65417474 9.50672644 39.87790389 7 43 C3.17036858 45.35669626 -0.46611679 46.8192408 -4.7265625 48.26171875 C-5.7470166 48.61459961 -5.7470166 48.61459961 -6.78808594 48.97460938 C-8.12990572 49.43297552 -9.47938035 49.86980686 -10.83691406 50.27929688 C-24.43065939 54.90724193 -35.60307743 70.56263502 -45.39404297 80.56542969 C-54.44651069 89.80230336 -63.60485681 98.29805196 -74 106 C-74.98274902 106.74910645 -75.96549805 107.49821289 -76.97802734 108.27001953 C-89.20963838 117.569833 -104.96588859 128.67520567 -121 127 C-135.11591162 123.80757312 -148.63256197 114.88068926 -157 103 C-152.56361988 94.84520466 -148.03230807 86.89019634 -142.75 79.25 C-132.06503377 63.53920238 -128.55328567 45.75638424 -128 27 C-123.95698055 30.45510835 -122.0959935 34.38190597 -119.9375 39.125 C-119.58679443 39.8869165 -119.23608887 40.64883301 -118.87475586 41.43383789 C-114.89096943 50.241236 -112.59708499 58.32310529 -112 68 C-107.6436771 69.26678944 -104.9810898 68.65112957 -100.73046875 67.19140625 C-98.91337402 66.57120605 -98.91337402 66.57120605 -97.05957031 65.93847656 C-95.76842789 65.48109254 -94.47774507 65.02240929 -93.1875 64.5625 C-92.53616089 64.33413452 -91.88482178 64.10576904 -91.21374512 63.8704834 C-77.59785886 59.08733997 -64.70264701 53.5941314 -53 45 C-52.113125 44.401875 -51.22625 43.80375 -50.3125 43.1875 C-46.8621423 39.92364812 -44.43641464 36.05830944 -42 32 C-41.6390625 31.40703125 -41.278125 30.8140625 -40.90625 30.203125 C-39.58622483 26.9940983 -39.21055887 23.65795091 -38.6875 20.25 C-37.41189108 12.76749558 -35.36982516 7.59448017 -30.125 2 C-26.94095916 0.50162784 -24.4663243 0.62860811 -21 1 C-19.65724831 1.98731742 -18.32267727 2.98594743 -17 4 C-13.8998301 3.84101693 -12.22064207 3.14515926 -9.625 1.4375 C-6.08965602 -0.4985217 -3.97316084 -0.63854371 0 0 Z " fill="#F8CFA9" transform="translate(446,193)"/>
<path d="M0 0 C-0.15984375 0.69738281 -0.3196875 1.39476562 -0.484375 2.11328125 C-2.65454384 14.2629386 -0.3678631 24.00730604 5.6875 34.5 C8.79263531 40.07213899 10.54234214 44.64701929 9 51 C6.59338389 54.56535721 3.91620053 55.49326945 0 57 C-0.0093457 57.74572266 -0.01869141 58.49144531 -0.02832031 59.25976562 C-0.0823603 62.6738215 -0.16594304 66.08655655 -0.25 69.5 C-0.26417969 70.67304687 -0.27835937 71.84609375 -0.29296875 73.0546875 C-0.47895279 79.67571927 -0.75780677 85.63123536 -5 91 C-7.98406731 93.73178528 -10.14099949 94.416302 -14.140625 94.73828125 C-15.12933594 94.83689453 -16.11804688 94.93550781 -17.13671875 95.03710938 C-19.19573288 95.219243 -21.25566684 95.39128791 -23.31640625 95.55273438 C-31.49629339 96.39618577 -36.57975436 98.85358755 -41.83984375 105.23046875 C-42.20207031 105.87628906 -42.56429687 106.52210938 -42.9375 107.1875 C-43.31777344 107.84105469 -43.69804687 108.49460937 -44.08984375 109.16796875 C-48.26993268 117.5819675 -46.19389071 129.93922228 -45 139 C-48.66736517 137.65987547 -51.72583144 136.02971826 -54.9375 133.8125 C-55.75089844 133.26207031 -56.56429687 132.71164063 -57.40234375 132.14453125 C-64.26337871 126.48030841 -67.36562235 120.51762675 -70.4375 112.25 C-75.79087407 98.58362644 -82.67405206 85.6810288 -95 77 C-94.25556641 76.41605469 -94.25556641 76.41605469 -93.49609375 75.8203125 C-85.83226862 69.5089271 -77.79046653 60.5495798 -76.5625 50.375 C-76.71966148 45.5769526 -78.44457305 41.2839957 -80.125 36.83203125 C-80.99946313 34.00173764 -81.27618438 31.93759752 -81 29 C-79.5625 26.625 -79.5625 26.625 -77 25 C-72.42751714 24.57211628 -69.06564307 25.12084447 -65.5 28.0625 C-63.57289361 31.83641668 -63.28591589 34.78274069 -63 39 C-61.34385343 39.38218767 -59.67542976 39.71395102 -58 40 C-56.46019678 38.46019678 -56.73128778 36.90934458 -56.5703125 34.765625 C-56.46323975 33.44788086 -56.46323975 33.44788086 -56.35400391 32.10351562 C-56.27843262 31.16185547 -56.20286133 30.22019531 -56.125 29.25 C-54.02690003 5.63938164 -54.02690003 5.63938164 -48 0 C-44.85028494 -0.69208743 -41.77305875 -0.55806479 -38.5625 -0.453125 C-37.6454126 -0.44367859 -36.7283252 -0.43423218 -35.78344727 -0.42449951 C-32.85472776 -0.38992452 -29.92803866 -0.32115759 -27 -0.25 C-24.07223477 -0.20000204 -21.14448835 -0.15702342 -18.21655273 -0.11834717 C-16.39561652 -0.09199214 -14.57477287 -0.05781469 -12.75415039 -0.01495361 C-11.9264917 0.00126038 -11.09883301 0.01747437 -10.24609375 0.03417969 C-9.52091553 0.05148132 -8.7957373 0.06878296 -8.04858398 0.08660889 C-5.96182665 0.07158473 -5.96182665 0.07158473 -3.85961914 -0.56463623 C-2 -1 -2 -1 0 0 Z " fill="#F8CEA8" transform="translate(356,46)"/>
<path d="M0 0 C2.74228315 1.37114158 2.70144461 2.78014891 3.75 5.625 C7.2318937 12.86941764 13.8331794 15.37189706 21 18 C23.8083791 18.67661964 26.1024245 18.94204849 29 19 C27.2233087 24.84531439 24.50015644 29.98063589 21.65625 35.3671875 C16.18121779 47.37610249 15.90106742 62.63420255 20.0625 75.125 C26.03124146 90.68092675 37.97095108 100.39792327 51.3125 109.5625 C58.88233302 114.80720748 66.38780905 120.12745179 73.82348633 125.56079102 C78.79407179 129.17859615 83.86217239 132.6241622 89 136 C88.44188093 139.35089318 87.669472 141.99494271 86.00390625 144.953125 C85.61009766 145.654375 85.21628906 146.355625 84.81054688 147.078125 C84.39869141 147.79484375 83.98683594 148.5115625 83.5625 149.25 C83.15451172 149.9821875 82.74652344 150.714375 82.32617188 151.46875 C79.2606456 156.8696772 79.2606456 156.8696772 77 158 C69.77088384 157.9833289 63.18713768 156.09668548 56.4375 153.6875 C55.45515381 153.33993652 54.47280762 152.99237305 53.46069336 152.63427734 C20.78016427 140.6927692 -13.98105561 122.28177593 -29.62890625 89.59765625 C-36.25032389 73.12900211 -34.79877647 57.38213872 -28.078125 41.265625 C-21.15865902 25.52352479 -11.23823456 12.86200989 0 0 Z " fill="#E4646E" transform="translate(171,332)"/>
<path d="M0 0 C2.92429864 1.39563703 4.74052295 2.62227354 6.875 5.0625 C15.81457149 14.21263955 28.77142189 21.86067431 41.75 22.4375 C48.63854681 22.42349889 55.57757025 18.42966637 61.625 15.4375 C62.30651123 15.10105469 62.98802246 14.76460938 63.69018555 14.41796875 C69.38079144 11.51111905 74.50703694 8.03761528 79.57080078 4.15014648 C83.71452634 1 83.71452634 1 87 1 C90.35177866 12.94071146 90.35177866 12.94071146 87.8125 18.6875 C85.76364118 21.30156125 83.6533239 22.99526639 81 25 C74.36544226 30.09928818 68.72570803 36.01685659 66.34765625 44.26171875 C65.86308553 48.07839378 65.85544149 51.84425371 65.875 55.6875 C65.87113281 56.45900391 65.86726563 57.23050781 65.86328125 58.02539062 C65.77163886 62.1446881 65.77163886 62.1446881 67 66 C67.34184213 70.09376799 67.10485552 73.66153075 64.4296875 76.90234375 C62.34841288 78.70203415 60.21344629 80.36580915 58 82 C53.05437679 85.77598793 49.67437761 89.16563596 46.7578125 94.734375 C46.23590332 95.72147461 45.71399414 96.70857422 45.17626953 97.72558594 C44.78810059 98.47614258 44.39993164 99.22669922 44 100 C36.51159051 100.22950786 29.02409759 100.38634642 21.53295898 100.49438477 C18.98866894 100.53945218 16.44460948 100.60072676 13.90112305 100.67895508 C-9.98322671 101.39478378 -9.98322671 101.39478378 -16.71875 95.875 C-18.18651873 94.28665281 -19.6179345 92.66345628 -21 91 C-22.42273925 89.79677359 -23.87352639 88.62560144 -25.35546875 87.49609375 C-25.99677734 86.98369141 -26.63808594 86.47128906 -27.29882812 85.94335938 C-27.92208984 85.44642578 -28.54535156 84.94949219 -29.1875 84.4375 C-29.85330078 83.90576172 -30.51910156 83.37402344 -31.20507812 82.82617188 C-32.80291962 81.55019773 -34.40138686 80.27500724 -36 79 C-32.76527479 70.38339901 -29.31528082 61.90355984 -25.5625 53.5 C-25.05388428 52.35797119 -24.54526855 51.21594238 -24.02124023 50.03930664 C-16.44423505 33.15913652 -8.31632982 16.52679406 0 0 Z " fill="#8ECB51" transform="translate(288,297)"/>
<path d="M0 0 C2.88702584 2.06278432 5.09011048 4.3336981 7.46484375 6.9453125 C11.56993646 10.6270439 16.4967518 13.18668456 21.2578125 15.9296875 C23.40735622 17.16845037 25.52166923 18.47147741 27.5859375 19.84765625 C28.04296875 22.74609375 28.04296875 22.74609375 27.5859375 25.84765625 C21.4114841 32.62482202 11.3554373 35.94849382 2.5859375 37.84765625 C1.16664803 37.9121105 -0.25554645 37.92557147 -1.67602539 37.89770508 C-2.50691177 37.88471878 -3.33779816 37.87173248 -4.19386292 37.85835266 C-5.52682655 37.83178841 -5.52682655 37.83178841 -6.88671875 37.8046875 C-8.77407816 37.78230987 -10.66144868 37.76085332 -12.54882812 37.74023438 C-15.52056774 37.70305377 -18.49174349 37.65985469 -21.46313477 37.60083008 C-24.33358063 37.54648265 -27.20338817 37.51729029 -30.07421875 37.4921875 C-30.96488541 37.4684053 -31.85555206 37.44462311 -32.77320862 37.42012024 C-37.56620629 37.25889042 -37.56620629 37.25889042 -41.44287109 39.71386719 C-45.55234723 48.74273129 -45.97822164 59.10564586 -46.67993164 68.86303711 C-46.74817139 69.73839111 -46.81641113 70.61374512 -46.88671875 71.515625 C-46.96805054 72.69547974 -46.96805054 72.69547974 -47.05102539 73.89916992 C-47.4140625 75.84765625 -47.4140625 75.84765625 -49.4140625 77.84765625 C-53.96961806 77.29210069 -53.96961806 77.29210069 -55.4140625 75.84765625 C-55.68152485 74.22543897 -55.92824814 72.59977536 -56.1640625 70.97265625 C-56.93155748 66.84473967 -56.93155748 66.84473967 -59.6640625 63.72265625 C-63.52769582 62.49331838 -66.64604795 61.93513261 -70.3515625 63.84765625 C-72.1100493 67.15774904 -71.23599615 70.35291614 -70.4140625 73.84765625 C-69.91272777 75.35428522 -69.39150172 76.8544272 -68.8515625 78.34765625 C-66.90645751 84.04681387 -66.2251991 88.24938667 -68.76171875 93.79296875 C-70.24151409 96.52866605 -71.77985374 99.20179446 -73.4140625 101.84765625 C-74.4040625 101.84765625 -75.3940625 101.84765625 -76.4140625 101.84765625 C-76.89875 100.78289062 -77.3834375 99.718125 -77.8828125 98.62109375 C-81.18893754 91.43770244 -84.55190858 84.39476824 -88.6015625 77.59765625 C-96.17727729 64.68315032 -100.99108303 50.99412244 -97.80078125 35.95703125 C-94.78236694 27.50015239 -89.11576045 21.13819549 -81.2890625 16.84765625 C-76.63474289 14.28636146 -74.59301057 11.57733252 -71.890625 7.0859375 C-56.59400681 -16.10179325 -20.59464789 -12.72976267 0 0 Z " fill="#4E5D6D" transform="translate(347.4140625,9.15234375)"/>
<path d="M0 0 C-0.49516655 8.10620924 -1.89966157 15.74187599 -3.8125 23.625 C-4.366097 25.94395992 -4.91948275 28.26297027 -5.47265625 30.58203125 C-5.73965332 31.69271973 -6.00665039 32.8034082 -6.28173828 33.94775391 C-6.86897125 36.44319461 -7.4199373 38.93794343 -7.93359375 41.44921875 C-12.70881412 64.0458357 -21.44906276 85.53069748 -32 106 C-34.44179991 104.84682084 -36.2121686 103.81725889 -38.28125 102.03515625 C-41.48697464 99.6354687 -44.71278408 98.55116646 -48.5 97.4375 C-53.01359078 96.08342277 -57.04125819 94.62647293 -61 92 C-60.67 89.69 -60.34 87.38 -60 85 C-61.2065625 84.7215625 -61.2065625 84.7215625 -62.4375 84.4375 C-70.39997266 81.22457243 -75.17550352 76.91804552 -78.6875 69 C-82.97193922 58.71759188 -85.42431255 47.80527335 -88 37 C-88.34509676 35.60515705 -88.69129542 34.21058582 -89.0390625 32.81640625 C-91.27505529 23.61122099 -91.27505529 23.61122099 -91 19 C-89.22076247 17.22076247 -86.76420753 17.65760853 -84.3762207 17.45654297 C-72.33263494 16.40970504 -60.1960845 14.56232069 -49.95043945 7.7902832 C-40.84752928 1.88678783 -31.97138745 2.38228363 -21.34082031 2.85620117 C-14.89741482 3.13107723 -9.68626185 3.13976702 -3.66748047 0.66723633 C-2 0 -2 0 0 0 Z " fill="#CDE1FE" transform="translate(252,205)"/>
<path d="M0 0 C0.33 0 0.66 0 1 0 C2.07286254 16.33135195 -0.64511296 35.21866883 -11.5625 48 C-12.366875 48.66 -13.17125 49.32 -14 50 C-15.051875 51.0209375 -15.051875 51.0209375 -16.125 52.0625 C-25.13665484 58.13557174 -33.70642622 58.29813897 -44.25 57.75 C-54.84444399 57.46131401 -61.81604082 58.07426384 -70.62109375 63.89453125 C-80.3053056 69.92897078 -92.18411751 71.5154169 -103.3762207 72.36865234 C-105.25662218 72.5185805 -107.13008571 72.7513864 -109 73 C-109.33 73.66 -109.66 74.32 -110 75 C-116.91728033 73.27067992 -121.93867826 69.42205305 -126.5 64.0625 C-128.38052454 60.22309573 -128.64682004 58.2402647 -128 54 C-125.4126279 47.17983022 -121.44571008 42.417383 -115 39 C-106.98558883 35.74164453 -98.47526766 34.21728269 -90.0324707 32.49731445 C-77.49257272 29.91175549 -66.1125191 26.8666844 -56.5625 18 C-47.64271152 9.74958483 -37.29016364 6.61347945 -25.3125 6.6875 C-24.43416504 6.68951416 -23.55583008 6.69152832 -22.65087891 6.69360352 C-15.17818281 6.80836719 -7.77413964 7.61293018 -1 11 C-0.67 7.37 -0.34 3.74 0 0 Z " fill="#F8CEA9" transform="translate(271,151)"/>
<path d="M0 0 C9.1324166 4.5662083 16.95356162 10.78141842 25 17 C25.62132812 17.47808105 26.24265625 17.95616211 26.8828125 18.44873047 C38.21376216 27.18300416 49.14716864 36.3341435 59.73828125 45.953125 C61.80673875 47.8250969 63.89560914 49.6686339 66 51.5 C66.63164062 52.05429687 67.26328125 52.60859375 67.9140625 53.1796875 C69.48340675 54.54919016 71.06337409 55.90653425 72.6484375 57.2578125 C73.54820312 58.03898437 74.44796875 58.82015625 75.375 59.625 C76.20773437 60.33914063 77.04046875 61.05328125 77.8984375 61.7890625 C80.21317738 64.22427212 81.33581022 65.69887767 82 69 C80.77710548 72.67791294 79.7023594 74.51307478 76.50390625 76.73046875 C75.53324219 77.21128906 74.56257813 77.69210937 73.5625 78.1875 C65.85516629 82.37871432 59.06935182 88.1607708 53.41015625 94.890625 C52.94480469 95.25671875 52.47945313 95.6228125 52 96 C48.86934303 95.53632076 46.8520559 94.38945293 44.33984375 92.515625 C43.2873645 91.74085815 43.2873645 91.74085815 42.21362305 90.95043945 C41.08694214 90.10872192 41.08694214 90.10872192 39.9375 89.25 C33.43996223 84.46804077 26.87286171 79.82792104 20.1875 75.3125 C-9.53166621 55.09357466 -9.53166621 55.09357466 -12.5703125 44.4375 C-15.54017164 27.59029905 -9.34137336 14.01206004 0 0 Z " fill="#E4646E" transform="translate(223,355)"/>
<path d="M0 0 C43.89 0 87.78 0 133 0 C128.49530632 9.00938735 128.49530632 9.00938735 126.08203125 12.1484375 C125.55432129 12.83881104 125.02661133 13.52918457 124.48291016 14.24047852 C123.9316748 14.94487061 123.38043945 15.6492627 122.8125 16.375 C122.23806152 17.11741943 121.66362305 17.85983887 121.07177734 18.62475586 C116.62011416 24.32708888 111.93026586 29.70594754 107 35 C105.64004973 36.53656719 104.28547809 38.07791935 102.9375 39.625 C102.36902344 40.27726562 101.80054688 40.92953125 101.21484375 41.6015625 C100.81394531 42.06304687 100.41304688 42.52453125 100 43 C98.64583333 42.72916667 97.29166667 42.45833333 95.9375 42.1875 C95.03128906 42.00703125 94.12507813 41.8265625 93.19140625 41.640625 C90.88553034 41.1777564 88.58100149 40.7081598 86.27734375 40.234375 C84.34568359 39.83992188 84.34568359 39.83992188 82.375 39.4375 C80.56128906 39.06431641 80.56128906 39.06431641 78.7109375 38.68359375 C71.48104013 37.35177055 64.54437887 36.87615818 57.20288086 36.71020508 C20.36078217 35.84789588 20.36078217 35.84789588 6 23 C4.19921875 20.37109375 4.19921875 20.37109375 2.6875 17.4375 C2.17574219 16.48746094 1.66398437 15.53742188 1.13671875 14.55859375 C0 11 0 11 0 0 Z " fill="#384050" transform="translate(331,397)"/>
<path d="M0 0 C29.04 0 58.08 0 88 0 C84.7 9.9 81.4 19.8 78 30 C74.80305214 44.65267768 72.29117173 59.08407581 71 74 C50.44172241 61.11028627 32.03062387 43.97830812 17 25 C16.58282715 24.47567383 16.1656543 23.95134766 15.73583984 23.41113281 C0 3.57262808 0 3.57262808 0 0 Z " fill="#212335" transform="translate(48,397)"/>
<path d="M0 0 C3.40053502 1.58691634 6.5779386 3.40981682 9.8125 5.3125 C9.14420641 8.61264491 7.9091377 11.21815675 6.30859375 14.171875 C-0.30868115 26.80240296 -5.15667328 36.67199114 -1.5 51.0078125 C1.91220044 59.99530474 9.50188146 66.25875665 17.1875 71.5625 C17.96843018 72.11405762 18.74936035 72.66561523 19.55395508 73.23388672 C21.96717369 74.93593546 24.38938731 76.6245778 26.8125 78.3125 C28.28857721 79.35040185 29.76386438 80.38942837 31.23828125 81.4296875 C32.30115356 82.17943848 32.30115356 82.17943848 33.38549805 82.94433594 C36.16620986 84.90794677 38.94523292 86.87393978 41.72363281 88.84082031 C43.14916701 89.8451588 44.57837807 90.84429362 46.01074219 91.83886719 C48.14066322 93.31837292 50.25855523 94.81380504 52.375 96.3125 C53.3498938 96.97983154 53.3498938 96.97983154 54.34448242 97.66064453 C56.12890625 98.9375 56.12890625 98.9375 58.8125 101.3125 C58.8125 105.43457122 58.7143058 105.94193781 56.40625 108.984375 C55.90996094 109.64824219 55.41367187 110.31210937 54.90234375 110.99609375 C54.37769531 111.67800781 53.85304688 112.35992187 53.3125 113.0625 C52.78785156 113.75988281 52.26320313 114.45726562 51.72265625 115.17578125 C50.42776573 116.89445413 49.12123502 118.60434585 47.8125 120.3125 C42.44146518 117.37773849 37.54849515 114.06568562 32.625 110.4375 C25.08963182 104.93383069 17.47974165 99.54986568 9.80200195 94.24658203 C5.02146059 90.92617303 0.36590677 87.49059308 -4.20092773 83.88110352 C-5.77064428 82.64165055 -7.3654625 81.43399145 -8.96875 80.23828125 C-18.09863422 72.31392752 -24.15486757 59.80847993 -25.44921875 47.90576172 C-26.19228396 37.19117418 -25.5243662 27.25675096 -21.1875 17.3125 C-20.91373535 16.66313477 -20.6399707 16.01376953 -20.35791016 15.34472656 C-15.21702056 3.43569559 -15.21702056 3.43569559 -10.73828125 0.95703125 C-8.48611461 0.47468316 -6.48223666 0.32202173 -4.1875 0.3125 C-2.1875 -0.6875 -2.1875 -0.6875 0 0 Z " fill="#CDE0FD" transform="translate(213.1875,348.6875)"/>
<path d="M0 0 C-0.33 0.886875 -0.66 1.77375 -1 2.6875 C-2.88750611 9.38951445 -3.30003336 17.02075688 -0.5 23.4375 C2.12481315 26.12793348 4.81408344 28.13843463 8 30.1171875 C12.13338564 34.00838257 13.90022124 38.36008772 14.2421875 43.98046875 C14.14376484 45.38469869 14.02026654 46.78734059 13.875 48.1875 C13.81368896 48.94417969 13.75237793 49.70085938 13.68920898 50.48046875 C13.55285677 52.11338175 13.40559464 53.74541331 13.24853516 55.37646484 C12.98367718 58.17230358 12.76136218 60.96969947 12.54296875 63.76953125 C12.38459648 65.67983624 12.22447325 67.58999697 12.0625 69.5 C11.98821777 70.41418701 11.91393555 71.32837402 11.83740234 72.27026367 C11.75828613 73.11951416 11.67916992 73.96876465 11.59765625 74.84375 C11.53070557 75.59849609 11.46375488 76.35324219 11.39477539 77.13085938 C11 79 11 79 9 81 C4.44444444 80.44444444 4.44444444 80.44444444 3 79 C2.73253765 77.37778272 2.48581436 75.75211911 2.25 74.125 C1.48250502 69.99708342 1.48250502 69.99708342 -1.25 66.875 C-5.11363332 65.64566213 -8.23198545 65.08747636 -11.9375 67 C-13.6959868 70.31009279 -12.82193365 73.50525989 -12 77 C-11.49866527 78.50662897 -10.97743922 80.00677095 -10.4375 81.5 C-8.49239501 87.19915762 -7.8111366 91.40173042 -10.34765625 96.9453125 C-11.82745159 99.6810098 -13.36579124 102.35413821 -15 105 C-15.99 105 -16.98 105 -18 105 C-18.4846875 103.93523437 -18.969375 102.87046875 -19.46875 101.7734375 C-22.77487504 94.59004619 -26.13784608 87.54711199 -30.1875 80.75 C-37.76321479 67.83549407 -42.57702053 54.14646619 -39.38671875 39.109375 C-36.36830444 30.65249614 -30.70169795 24.29053924 -22.875 20 C-18.23258135 17.44525437 -16.17440867 14.75664435 -13.5078125 10.25390625 C-10.72525401 6.09448592 -5.38140925 0 0 0 Z " fill="#394152" transform="translate(289,6)"/>
<path d="M0 0 C0.33 0 0.66 0 1 0 C1.00386719 1.4540625 1.00386719 1.4540625 1.0078125 2.9375 C1.44668381 23.67678181 10.62872992 39.22543022 25.24316406 53.58935547 C29.25782529 57.42672431 33.41500098 60.85343204 38 64 C36.9171875 64.99 36.9171875 64.99 35.8125 66 C30.44347964 71.36902036 26.9219626 77.3958342 26.75 85.0625 C26.78714664 90.63449598 28.34159649 95.71877453 30 101 C14.34933413 95.57367424 -6.04570967 87.95429033 -18 76 C-18.32261757 68.72234786 -17.44293608 61.80600103 -16.3125 54.625 C-16.13243408 53.4795874 -15.95236816 52.3341748 -15.7668457 51.15405273 C-13.0540224 34.57002269 -9.47292829 14.20939243 0 0 Z " fill="#C5237B" transform="translate(137,395)"/>
<path d="M0 0 C17.56429049 7.6985288 38.00457162 26.69418139 46.12109375 43.8046875 C47.14752946 47.0122991 47.074108 47.87210011 46.12109375 50.9296875 C14.38670904 58.40715798 14.38670904 58.40715798 4.12109375 57.9296875 C4.76046875 57.1665625 5.39984375 56.4034375 6.05859375 55.6171875 C8.26342156 53.04722037 8.26342156 53.04722037 9.12109375 49.9296875 C8.51958496 49.76605713 7.91807617 49.60242676 7.29833984 49.43383789 C0.83324001 47.59567232 -5.16242167 45.19175637 -11.25390625 42.3671875 C-12.56681641 41.76874023 -12.56681641 41.76874023 -13.90625 41.15820312 C-17.59444065 39.47177091 -21.25914285 37.75904683 -24.87890625 35.9296875 C-24.29363111 31.66888445 -22.7870455 28.71612695 -20.56640625 25.0546875 C-19.93089844 23.99894531 -19.29539062 22.94320313 -18.640625 21.85546875 C-18.05925781 20.88996094 -17.47789062 19.92445313 -16.87890625 18.9296875 C-16.20749063 17.70310843 -15.5397828 16.47447696 -14.87890625 15.2421875 C-5.55066198 -0.20771708 -5.55066198 -0.20771708 0 0 Z " fill="#FABB8D" transform="translate(275.87890625,453.0703125)"/>
<path d="M0 0 C4.0326971 18.75924274 2.66306983 37.53583521 -2 56 C-2.33668701 57.34191406 -2.33668701 57.34191406 -2.68017578 58.7109375 C-4.06018002 64.15766282 -5.50502237 69.58376957 -7 75 C-13.21157189 74.06052738 -17.47873616 71.30157861 -22 67 C-31.02670563 54.13251962 -33.94348264 37.05942343 -37.375 22 C-37.54281982 21.26491211 -37.71063965 20.52982422 -37.88354492 19.77246094 C-38.671939 16.13895559 -39.29607424 12.72207612 -39 9 C-37.22050102 7.22050102 -34.76155718 7.65751645 -32.37304688 7.45483398 C-21.85557326 6.54699856 -9.85269821 0 0 0 Z " fill="#62CCF7" transform="translate(200,215)"/>
<path d="M0 0 C6.46636795 1.31519348 12.62789389 3.10139551 18.88671875 5.1953125 C23.2813056 6.33117811 26.69016485 6.43661172 31 5 C32.84667969 5.61743164 32.84667969 5.61743164 34.921875 6.66015625 C36.07949341 7.22875366 36.07949341 7.22875366 37.26049805 7.80883789 C38.08203369 8.22254639 38.90356934 8.63625488 39.75 9.0625 C48.0350522 13.12280318 56.37898569 16.71396316 65 20 C64.76293681 23.20035301 63.7820396 24.23056825 61.53515625 26.60742188 C57.47259784 29.86252273 53.59545733 29.6887675 48.5625 29.59375 C47.19794174 29.59550987 47.19794174 29.59550987 45.80581665 29.5973053 C42.86966951 29.59191193 39.93573738 29.54789292 37 29.5 C34.99267921 29.48386149 32.9853549 29.46815537 30.97802734 29.45288086 C17.78442203 29.30169194 4.97226288 28.53919547 -8 26 C-9.9992797 25.6623733 -11.99897942 25.32715098 -14 25 C-9.54929035 16.52783697 -5.05282519 8.13428297 0 0 Z " fill="#222335" transform="translate(220,483)"/>
<path d="M0 0 C0.33 0 0.66 0 1 0 C1.08636719 1.06476563 1.17273438 2.12953125 1.26171875 3.2265625 C2.50712617 16.7490239 4.84977662 30.09485244 15 40 C20.71277579 44.7340507 27.05124529 47.53384489 34 50 C33.47731534 52.76276177 32.89130413 55.3260876 32 58 C31.65527963 66.36453837 31.90597979 74.69716802 33 83 C29.33263483 81.65987547 26.27416856 80.02971826 23.0625 77.8125 C22.24910156 77.26207031 21.43570313 76.71164063 20.59765625 76.14453125 C13.73662129 70.48030841 10.63437765 64.51762675 7.5625 56.25 C2.20912593 42.58362644 -4.67405206 29.6810288 -17 21 C-16.25556641 20.41605469 -16.25556641 20.41605469 -15.49609375 19.8203125 C-8.80241732 14.30787309 -3.7203916 7.85616673 0 0 Z " fill="#F9BC8E" transform="translate(278,102)"/>
<path d="M0 0 C0.66 0 1.32 0 2 0 C2.29390625 1.670625 2.29390625 1.670625 2.59375 3.375 C5.30175946 17.61561124 9.74459181 33.00476836 22 42 C24.58778268 43.58435674 27.19023526 44.86171578 30 46 C31.485 46.61875 31.485 46.61875 33 47.25 C33.66 47.4975 34.32 47.745 35 48 C29.93566351 51.37622433 24.96114778 51.62280648 19 51 C4.88408838 47.80757312 -8.63256197 38.88068926 -17 27 C-6.11970104 6.92685585 -6.11970104 6.92685585 0 0 Z " fill="#F9BC8D" transform="translate(306,269)"/>
<path d="M0 0 C4.44441654 2.16800807 8.72509633 4.52055587 13 7 C12.67 8.98 12.34 10.96 12 13 C8.38522825 11.50198648 6.31379537 9.42462583 3.75 6.5 C3.04359375 5.7059375 2.3371875 4.911875 1.609375 4.09375 C0 2 0 2 0 0 Z " fill="#93CB58" transform="translate(179,283)"/>
</svg>
